squats_1_grf
version=1
nRows=18
nColumns=19
inDegrees=no
endheader
time	ground_force_left_vx	ground_force_left_vy	ground_force_left_vz	ground_force_left_px	ground_force_left_py	ground_force_left_pz	ground_force_left_mx	ground_force_left_my	ground_force_left_mz	ground_force_right_vx	ground_force_right_vy	ground_force_right_vz	ground_force_right_px	ground_force_right_py	ground_force_right_pz	ground_force_right_mx	ground_force_right_my	ground_force_right_mz
     25.26000000	      5.75970061	    598.92451913	    135.44364595	     -2.32707925	      0.00977827	      2.17018883	     -0.00056260	      0.28693570	     -0.00071752	     -6.01277204	    707.90677560	   -154.13212459	     -2.31042454	      0.01025282	      2.76116159	     -0.00109951	      0.89088085	      0.00266207
     25.26100000	      5.93157944	    597.55334376	    135.17748822	     -2.32718441	      0.00977810	      2.17020196	     -0.00058722	      0.29949504	     -0.00074892	     -5.82566790	    706.82612945	   -153.85531302	     -2.31051320	      0.01025279	      2.76113312	     -0.00108389	      0.87822879	      0.00262426
     25.26200000	      6.10289640	    596.17349532	    134.90994965	     -2.32729078	      0.00977792	      2.17021507	     -0.00061197	      0.31211578	     -0.00078048	     -5.63398033	    705.72673034	   -153.57841472	     -2.31060264	      0.01025277	      2.76110508	     -0.00106835	      0.86563443	      0.00258663
     25.26300000	      6.27386172	    594.78605960	    134.64117001	     -2.32739845	      0.00977774	      2.17022816	     -0.00063681	      0.32478582	     -0.00081217	     -5.43820527	    704.61000287	   -153.30191449	     -2.31069280	      0.01025274	      2.76107747	     -0.00105284	      0.85307194	      0.00254909
     25.26400000	      6.44473678	    593.39217289	    134.37128443	     -2.32750753	      0.00977756	      2.17024123	     -0.00066173	      0.33749256	     -0.00084394	     -5.23884528	    703.47760960	   -153.02630196	     -2.31078363	      0.01025271	      2.76105031	     -0.00103734	      0.84051508	      0.00251157
     25.26500000	      6.61582778	    591.99301493	    134.10042217	     -2.32761813	      0.00977738	      2.17025429	     -0.00068669	      0.35022281	     -0.00087577	     -5.03640675	    702.33143326	   -152.75206667	     -2.31087507	      0.01025267	      2.76102361	     -0.00102182	      0.82793743	      0.00247398
     25.26600000	      6.78747866	    590.58980217	    133.82870582	     -2.32773035	      0.00977719	      2.17026734	     -0.00071167	      0.36296289	     -0.00090763	     -4.83139701	    701.17355605	   -152.47969290	     -2.31096709	      0.01025264	      2.76099737	     -0.00100624	      0.81531262	      0.00243626
     25.26700000	      6.96006338	    589.18378165	    133.55625077	     -2.32784428	      0.00977700	      2.17028039	     -0.00073664	      0.37569849	     -0.00093948	     -4.62432169	    700.00623639	   -152.20965434	     -2.31105962	      0.01025260	      2.76097157	     -0.00099057	      0.80261466	      0.00239832
     25.26800000	      7.13397780	    587.77622544	    133.28316516	     -2.32796001	      0.00977681	      2.17029345	     -0.00076157	      0.38841474	     -0.00097128	     -4.41568211	    698.83188348	   -151.94240880	     -2.31115262	      0.01025256	      2.76094621	     -0.00097478	      0.78981819	      0.00236008
     25.26900000	      7.30963115	    586.36842578	    133.00955021	     -2.32807760	      0.00977661	      2.17030652	     -0.00078644	      0.40109612	     -0.00100299	     -4.20597281	    697.65303019	   -151.67839286	     -2.31124604	      0.01025252	      2.76092127	     -0.00095883	      0.77689883	      0.00232147
     25.27000000	      7.48743739	    584.96169095	    132.73550088	     -2.32819712	      0.00977641	      2.17031963	     -0.00081120	      0.41372648	     -0.00103457	     -3.99567926	    696.47230445	   -151.41801673	     -2.31133984	      0.01025248	      2.76089671	     -0.00094271	      0.76383346	      0.00228243
     25.27100000	      7.66780660	    583.55734175	    132.46110689	     -2.32831863	      0.00977620	      2.17033278	     -0.00083583	      0.42628901	     -0.00106599	     -3.78527562	    695.29239969	   -151.16165937	     -2.31143397	      0.01025243	      2.76087251	     -0.00092637	      0.75060058	      0.00224289
     25.27200000	      7.85113644	    582.15670868	    132.18645401	     -2.32844217	      0.00977599	      2.17034598	     -0.00086030	      0.43876631	     -0.00109719	     -3.57522269	    694.11604451	   -150.90966390	     -2.31152839	      0.01025239	      2.76084864	     -0.00090981	      0.73718062	      0.00220279
     25.27300000	      8.03780401	    580.76112966	    131.91162564	     -2.32856775	      0.00977578	      2.17035924	     -0.00088456	      0.45114049	     -0.00112813	     -3.36596601	    692.94597208	   -150.66233352	     -2.31162306	      0.01025234	      2.76082504	     -0.00089300	      0.72355624	      0.00216208
     25.27400000	      8.22815811	    579.37194809	    131.63670442	     -2.32869538	      0.00977556	      2.17037258	     -0.00090858	      0.46339327	     -0.00115877	     -3.15793395	    691.78488943	   -150.41992788	     -2.31171792	      0.01025230	      2.76080169	     -0.00087591	      0.70971265	      0.00212071
     25.27500000	      8.42251216	    577.99051129	    131.36177417	     -2.32882506	      0.00977534	      2.17038600	     -0.00093233	      0.47550622	     -0.00118906	     -2.95153600	    690.63544708	   -150.18266018	     -2.31181295	      0.01025225	      2.76077854	     -0.00085854	      0.69563784	      0.00207866
     25.27600000	      8.62113778	    576.61816894	    131.08692165	     -2.32895677	      0.00977512	      2.17039951	     -0.00095577	      0.48746099	     -0.00121895	     -2.74716106	    689.50020930	   -149.95069483	     -2.31190810	      0.01025220	      2.76075554	     -0.00084087	      0.68132280	      0.00203588
     25.27700000	      8.82425926	    575.25627153	    130.81223852	     -2.32909045	      0.00977489	      2.17041312	     -0.00097887	      0.49923967	     -0.00124841	     -2.54517572	    688.38162542	   -149.72414599	     -2.31200334	      0.01025215	      2.76073264	     -0.00082290	      0.66676173	      0.00199237
